<?xml version="1.0" standalone="no"?>
<!DOCTYPE svg PUBLIC "-//W3C//DTD SVG 1.1//EN" "http://www.w3.org/Graphics/SVG/1.1/DTD/svg11.dtd" >
<svg xmlns="http://www.w3.org/2000/svg">
<metadata>
Created by FontPrep 20130207 at Wed Jan 13 13:07:55 2016
 By Mauricio Duran
Michael Muranaka
</metadata>
<defs>
<font id="a24da55da8a80de703d242f4d21574e5" horiz-adv-x='1024' >
  <font-face 
    font-family="DolceVita"
    font-weight="400"
    font-stretch="normal"
    units-per-em="2048"
    panose-1="2 0 5 0 0 0 0 0 0 0"
    ascent="1638"
    descent="-410"
    x-height="1433"
    cap-height="1443"
    bbox="-148 -380 2302 1721"
    underline-thickness="150"
    underline-position="-142"
    unicode-range="U+0020-F002"
  />
<missing-glyph horiz-adv-x="2348" 
d="M980 697h172v-697h-114q-107 5 -207 41v-41h-114q-137 6 -259 62t-215 152q-91 96 -143 220q-52 125 -52 263h174q0 -169 98 -305t255 -190q-98 96 -152 224t-54 271h174q0 -185 116 -329v329h172v-467q71 -36 149 -49v516zM2128 697h174q0 -138 -52 -263
q-52 -124 -143 -220q-93 -96 -215 -152t-259 -62h-113v41q-101 -36 -207 -41h-114v697h172v-516q78 13 149 49v467h171v-329q117 143 117 329h174q0 -143 -54 -271t-152 -224q156 54 254 190t98 305zM1371 737h-172v697h114q106 -5 207 -41v41h113q137 -6 259 -62t215 -152
q91 -96 143 -220q52 -125 52 -263h-174q0 169 -98 305t-254 190q98 -96 152 -224t54 -271h-174q0 186 -117 329v-329h-171v467q-71 36 -149 49v-516zM1152 1434v-697h-172v516q-78 -13 -149 -49v-467h-172v329q-116 -144 -116 -329h-174q1 143 55 271t151 224
q-157 -54 -255 -190t-98 -305h-174q0 138 52 263q52 124 143 220q93 96 215 152t259 62h114v-41q101 36 207 41h114z" />
    <glyph glyph-name=".notdef" horiz-adv-x="2348" 
d="M980 697h172v-697h-114q-107 5 -207 41v-41h-114q-137 6 -259 62t-215 152q-91 96 -143 220q-52 125 -52 263h174q0 -169 98 -305t255 -190q-98 96 -152 224t-54 271h174q0 -185 116 -329v329h172v-467q71 -36 149 -49v516zM2128 697h174q0 -138 -52 -263
q-52 -124 -143 -220q-93 -96 -215 -152t-259 -62h-113v41q-101 -36 -207 -41h-114v697h172v-516q78 13 149 49v467h171v-329q117 143 117 329h174q0 -143 -54 -271t-152 -224q156 54 254 190t98 305zM1371 737h-172v697h114q106 -5 207 -41v41h113q137 -6 259 -62t215 -152
q91 -96 143 -220q52 -125 52 -263h-174q0 169 -98 305t-254 190q98 -96 152 -224t54 -271h-174q0 186 -117 329v-329h-171v467q-71 36 -149 49v-516zM1152 1434v-697h-172v516q-78 -13 -149 -49v-467h-172v329q-116 -144 -116 -329h-174q1 143 55 271t151 224
q-157 -54 -255 -190t-98 -305h-174q0 138 52 263q52 124 143 220q93 96 215 152t259 62h114v-41q101 36 207 41h114z" />
    <glyph glyph-name=".null" horiz-adv-x="0" 
 />
    <glyph glyph-name="nonmarkingreturn" horiz-adv-x="508" 
 />
    <glyph glyph-name="space" unicode=" " horiz-adv-x="460" 
 />
    <glyph glyph-name="space" unicode="&#xa0;" horiz-adv-x="460" 
 />
    <glyph glyph-name="exclam" unicode="!" horiz-adv-x="336" 
d="M237 291h-132v1152h132v-1152zM170 177q40 0 68 -28q28 -27 28 -67t-28 -68t-68 -28t-67 28q-28 28 -28 68t28 67q27 28 67 28z" />
    <glyph glyph-name="quotedbl" unicode="&#x22;" horiz-adv-x="467" 
d="M336 1257q-40 0 -68 28t-28 68t28 68t64 28t61 -20q26 -20 35 -50q11 -55 -2 -105q-20 -81 -99 -115l-27 37q38 23 49 62q-7 -1 -13 -1zM124 1257q-40 0 -68 28t-28 68t28 68t64 28t61 -20q26 -20 35 -50q11 -55 -2 -105q-20 -81 -99 -115l-27 37q38 23 49 62
q-7 -1 -13 -1z" />
    <glyph glyph-name="numbersign" unicode="#" horiz-adv-x="1089" 
d="M473 822l-17 -177h210l16 177h-209zM1059 954v-132h-245l-16 -177h261v-132h-273l-48 -513h-132l47 513h-209l-47 -513h-133l48 513h-292v132h304l16 177h-320v132h332l45 482h132l-44 -482h209l45 482h132l-45 -482h233z" />
    <glyph glyph-name="dollar" unicode="$" horiz-adv-x="764" 
d="M442 -31h-132v197q-95 14 -174 67t-111 140l125 46q33 -90 160 -119v362q-289 99 -280 304q7 158 135 236q62 38 145 50v196h132v-195q146 -19 234 -114l-97 -90q-49 53 -137 70v-359q144 -49 218 -128t70 -180t-84 -184t-204 -102v-197zM310 1118q-142 -29 -148 -158
q-4 -93 148 -157v315zM442 619v-319q70 17 112 61t44 96q4 96 -156 162z" />
    <glyph glyph-name="percent" unicode="%" horiz-adv-x="1032" 
d="M1037 288q-1 -106 -75 -180t-180 -75q-106 1 -180 75t-74 180t74 180t180 74t181 -74q74 -74 74 -180zM660 288q0 -50 36 -87q36 -36 86 -36t87 36q36 37 36 87t-36 86q-37 36 -87 36t-86 -36t-36 -86zM507 1090q-1 -106 -75 -180t-180 -74t-180 74t-74 180t74 180
t180 75q106 0 181 -74q74 -75 74 -181zM130 1090q0 -50 36 -86t86 -36t87 36q36 36 36 86t-36 87q-37 36 -87 36t-86 -36q-36 -37 -36 -87zM803 1436h146l-689 -1436h-146z" />
    <glyph glyph-name="ampersand" unicode="&#x26;" horiz-adv-x="856" 
d="M739 788h90v-132h-90v-656h-321q-162 0 -278 116t-115 279q0 115 62 211t163 144q-137 117 -137 287q1 171 115 285t275 114h170v-132h-170q-106 0 -182 -76t-76 -182t76 -182t182 -76h104v165h132v-165zM607 132v524h-189q-108 0 -184 -76t-77 -186q1 -108 77 -185
t184 -77h189z" />
    <glyph glyph-name="quotesingle" unicode="'" horiz-adv-x="255" 
d="M124 1257q-40 0 -68 28t-28 68t28 68t64 28t61 -20q26 -20 35 -50q11 -55 -2 -105q-20 -81 -99 -115l-27 37q38 23 49 62q-7 -1 -13 -1z" />
    <glyph glyph-name="parenleft" unicode="(" horiz-adv-x="382" 
d="M25 721q0 391 112 596q87 158 243 218v-145q-223 -132 -223 -662t223 -673v-147q-355 142 -355 813z" />
    <glyph glyph-name="parenright" unicode=")" horiz-adv-x="382" 
d="M358 722q0 -391 -113 -596q-87 -158 -242 -218v145q223 132 223 662t-223 673v147q355 -143 355 -813z" />
    <glyph glyph-name="asterisk" unicode="*" horiz-adv-x="559" 
d="M210 1434h131v-154l146 48l41 -125l-146 -48l90 -124l-106 -77l-91 124l-90 -124l-106 77l90 124l-146 48l41 125l146 -48v154z" />
    <glyph glyph-name="plus" unicode="+" horiz-adv-x="552" 
d="M514 828v-132h-172v-173h-132v173h-173v132h173v172h132v-172h172z" />
    <glyph glyph-name="comma" unicode="," horiz-adv-x="349" 
d="M173 -15q-40 0 -68 28t-28 68t28 68q27 28 63 28t62 -20t35 -50q11 -55 -2 -105q-20 -81 -99 -115l-27 37q38 23 49 62q-7 -1 -13 -1z" />
    <glyph glyph-name="hyphen" unicode="-" horiz-adv-x="530" 
d="M501 694h-477v133h477v-133z" />
    <glyph glyph-name="hyphen" unicode="&#xad;" horiz-adv-x="530" 
d="M501 694h-477v133h477v-133z" />
    <glyph glyph-name="period" unicode="." horiz-adv-x="354" 
d="M170 177q40 0 68 -28q28 -27 28 -67t-28 -68t-68 -28t-67 28q-28 28 -28 68t28 67q27 28 67 28z" />
    <glyph glyph-name="slash" unicode="/" horiz-adv-x="545" 
d="M540 1436h147l-689 -1436h-146z" />
    <glyph glyph-name="zero" unicode="0" horiz-adv-x="973" 
d="M483 -14q-214 0 -341 186t-127 548q0 361 151 558q130 171 317 171t317 -171q150 -197 150 -561q0 -430 -181 -613q-117 -118 -286 -118zM147 732q0 -302 88 -458q88 -157 248 -157t248 157q88 156 88 458t-122 462q-93 123 -215 123t-214 -123q-121 -160 -121 -462z" />
    <glyph glyph-name="one" unicode="1" horiz-adv-x="325" 
d="M50 1436h203v-1436h-132v1304h-71v132z" />
    <glyph glyph-name="two" unicode="2" horiz-adv-x="750" 
d="M687 0h-695l58 100q494 849 494 989q0 103 -60 169t-140 66t-135 -40t-83 -107l-122 51q43 104 131 167q89 62 193 62q152 0 250 -104t99 -264q1 -112 -97 -311t-357 -645h464v-133z" />
    <glyph glyph-name="three" unicode="3" horiz-adv-x="806" 
d="M342 118q131 0 218 88t87 210q0 124 -87 210t-210 86v132q98 0 168 70t70 167t-70 167t-168 70q-133 0 -202 -113l-113 69q51 84 135 130t180 46q154 0 262 -108t108 -262q0 -185 -151 -296q96 -57 153 -155t57 -213q0 -178 -126 -304t-315 -126t-318 156l102 84
q89 -108 220 -108z" />
    <glyph glyph-name="four" unicode="4" horiz-adv-x="813" 
d="M608 1436h132v-1436h-132v586h-589l130 850h134l-110 -718h435v718z" />
    <glyph glyph-name="five" unicode="5" horiz-adv-x="806" 
d="M340 116q128 0 216 87q87 87 87 209t-87 210q-87 86 -210 86h-252l70 726h545v-132h-425l-45 -462h107q177 0 303 -125t126 -302q1 -177 -125 -303t-312 -126t-315 148l100 86q89 -102 217 -102z" />
    <glyph glyph-name="six" unicode="6" horiz-adv-x="905" 
d="M464 856q164 0 290 -126t126 -304t-126 -304t-302 -126t-303 125q-125 125 -127 302q-16 200 45 417q128 456 541 601l44 -125q-366 -128 -469 -555q117 95 281 95zM451 724q-123 0 -210 -88t-87 -210t87 -210t210 -88t210 88t87 210t-87 210t-210 88z" />
    <glyph glyph-name="seven" unicode="7" horiz-adv-x="743" 
d="M20 1436h692l-399 -1436h-137l363 1304h-519v132z" />
    <glyph glyph-name="eight" unicode="8" horiz-adv-x="887" 
d="M811 1078q0 -186 -150 -296q95 -56 152 -154t57 -213q0 -177 -126 -303t-302 -126t-302 126q-125 126 -125 303q0 115 57 213t152 154q-150 110 -150 296q0 152 108 260t260 108t261 -108q108 -108 108 -260zM206 1092q0 -98 70 -167t167 -69q98 0 167 69t69 167t-69 168
t-167 69q-97 1 -167 -69t-70 -168zM147 428q1 -122 87 -209t208 -87t210 87q87 87 87 209t-87 210q-88 86 -210 86t-209 -86q-86 -88 -86 -210z" />
    <glyph glyph-name="nine" unicode="9" horiz-adv-x="905" 
d="M434 582q-164 0 -290 126t-126 302q0 178 126 304t302 127q176 0 302 -125t128 -302q16 -200 -45 -417q-128 -456 -541 -601l-44 125q366 128 469 555q-117 -94 -281 -94zM447 714q123 0 210 87t87 210t-87 211t-210 87q-123 1 -210 -87t-87 -211t87 -210t210 -87z" />
    <glyph glyph-name="colon" unicode=":" horiz-adv-x="361" 
d="M170 856q40 0 68 -28t28 -68t-28 -68t-68 -27q-40 -1 -67 27q-28 28 -28 68t28 68q27 28 67 28zM170 177q40 0 68 -28q28 -27 28 -67t-28 -68t-68 -28t-67 28q-28 28 -28 68t28 67q27 28 67 28z" />
    <glyph glyph-name="semicolon" unicode=";" horiz-adv-x="354" 
d="M170 856q40 0 68 -28t28 -68t-28 -68t-68 -27q-40 -1 -67 27q-28 28 -28 68t28 68q27 28 67 28zM173 -15q-40 0 -68 28t-28 68t28 68q27 28 63 28t62 -20t35 -50q10 -55 -2 -105q-21 -81 -99 -115l-28 37q39 23 50 62q-7 -1 -13 -1z" />
    <glyph glyph-name="semicolon" unicode="&#x37e;" horiz-adv-x="354" 
d="M170 856q40 0 68 -28t28 -68t-28 -68t-68 -27q-40 -1 -67 27q-28 28 -28 68t28 68q27 28 67 28zM173 -15q-40 0 -68 28t-28 68t28 68q27 28 63 28t62 -20t35 -50q10 -55 -2 -105q-21 -81 -99 -115l-28 37q39 23 50 62q-7 -1 -13 -1z" />
    <glyph glyph-name="less" unicode="&#x3c;" horiz-adv-x="799" 
d="M289 426l477 -238v-147l-767 382l767 404v-150z" />
    <glyph glyph-name="equal" unicode="=" horiz-adv-x="530" 
d="M501 432h-477v133h477v-133zM501 694h-477v133h477v-133z" />
    <glyph glyph-name="greater" unicode="&#x3e;" horiz-adv-x="799" 
d="M29 188l478 238l-478 251v150l767 -404l-767 -382v147z" />
    <glyph glyph-name="question" unicode="?" horiz-adv-x="644" 
d="M280 177q40 0 67 -28q28 -27 28 -67t-28 -68q-27 -28 -67 -28t-68 28t-28 68t28 67q28 28 68 28zM206 285q0 212 24 327t140 251t116 230q0 93 -60 159t-152 66t-157 -72l-98 89q103 115 253 115t248 -104t98 -262q0 -88 -37 -154t-87 -124t-62 -77q-62 -87 -78 -167
t-16 -277h-132z" />
    <glyph glyph-name="at" unicode="@" horiz-adv-x="1432" 
d="M685 295q-48 0 -94 14q-150 45 -216 197q-67 152 -21 304q46 153 153 241t235 88q47 0 93 -13q151 -45 217 -197q77 -176 1 -361q-43 -146 8 -194q21 -19 42 -15q67 15 123 154q25 71 33 148q26 249 -117 439q-144 190 -368 214t-402 -134t-204 -406t116 -438
q142 -192 368 -215q158 -17 301 62l63 -116q-147 -81 -312 -81q-322 0 -522 266q-177 234 -146 534q30 300 250 494t502 165t458 -263t144 -535q-8 -84 -41 -182q-82 -205 -217 -234q-90 -20 -161 47q-42 38 -57 101q-105 -84 -229 -84zM685 427q190 0 257 222
q35 119 -9 221t-135 129q-28 9 -56 9q-191 0 -257 -222q-35 -120 9 -222t135 -128q27 -9 56 -9z" />
    <glyph glyph-name="A" unicode="A" horiz-adv-x="1177" 
d="M959 491v769l-487 -769h487zM1090 1436v-1436h-131v359h-570l-227 -359h-156l908 1436h176z" />
    <glyph glyph-name="B" unicode="B" horiz-adv-x="1032" 
d="M93 0v1436h432q161 0 275 -114t115 -285q0 -170 -137 -288q102 -47 164 -143t61 -211q1 -163 -115 -279t-278 -116h-517zM225 132h385q108 0 185 77q76 77 76 185t-76 185q-77 76 -185 76h-385v-523zM225 787h300q106 0 182 76t76 183q0 106 -76 182t-182 76h-300v-517z
" />
    <glyph glyph-name="C" unicode="C" horiz-adv-x="1110" 
d="M759 118q177 0 326 97v-152q-154 -77 -326 -77q-303 0 -517 214t-215 518q1 304 215 518t517 214q172 0 326 -77v-152q-149 97 -326 97q-248 0 -424 -176t-176 -424t176 -424t424 -176z" />
    <glyph glyph-name="D" unicode="D" horiz-adv-x="1188" 
d="M87 0v1436h353q298 0 508 -210t210 -508t-210 -508t-508 -210h-353zM218 131h222q243 0 415 172t172 415t-172 415t-415 172h-222v-1174z" />
    <glyph glyph-name="E" unicode="E" horiz-adv-x="849" 
d="M90 1436h733v-132h-601v-518h475v-132h-475v-522h601v-132h-733v1436z" />
    <glyph glyph-name="F" unicode="F" horiz-adv-x="849" 
d="M90 1436h733v-132h-601v-518h475v-132h-475v-654h-132v1436z" />
    <glyph glyph-name="G" unicode="G" horiz-adv-x="1103" 
d="M750 -14q-304 0 -518 214t-214 518q0 302 214 516t518 215q149 0 285 -57l-52 -122q-111 47 -233 47q-248 1 -424 -175t-176 -424t176 -424t424 -176q100 0 194 32v506h-299v132h431v-727l-40 -17q-137 -58 -286 -58z" />
    <glyph glyph-name="H" unicode="H" horiz-adv-x="1139" 
d="M937 1436h132v-1436h-132v654h-728v-654h-132v1436h132v-650h728v650z" />
    <glyph glyph-name="I" unicode="I" horiz-adv-x="219" 
d="M40 0v1443h133v-1443h-133z" />
    <glyph glyph-name="J" unicode="J" horiz-adv-x="552" 
d="M349 1440h133v-972q0 -200 -142 -342t-343 -142v132q146 0 249 104t103 248v972z" />
    <glyph glyph-name="K" unicode="K" horiz-adv-x="1025" 
d="M223 1h-132v1434h132v-760l611 761h169l-574 -715l593 -721h-170l-508 616l-121 -151v-464z" />
    <glyph glyph-name="L" unicode="L" horiz-adv-x="919" 
d="M90 1436h132v-1304h667v-132h-799v1436z" />
    <glyph glyph-name="M" unicode="M" horiz-adv-x="1542" 
d="M1462 1436v-1435h-131v1116l-483 -1117h-144l-482 1117v-1116h-132v1435h138l548 -1270l549 1270h137z" />
    <glyph glyph-name="N" unicode="N" horiz-adv-x="1167" 
d="M948 1436h132v-1436h-142l-716 1197v-1197h-132v1436h143l715 -1197v1197z" />
    <glyph glyph-name="O" unicode="O" horiz-adv-x="1513" 
d="M23 717q1 303 215 517t517 215q303 0 518 -214q214 -215 214 -518q-1 -303 -215 -517t-517 -215q-303 1 -517 215t-215 517zM155 717q0 -248 176 -424t424 -176t424 176t176 424t-176 424t-424 176t-424 -176t-176 -424z" />
    <glyph glyph-name="P" unicode="P" horiz-adv-x="1032" 
d="M225 0h-132v1436h517q162 0 278 -116t115 -278q0 -163 -115 -279q-116 -115 -278 -115h-385v-648zM225 780h385q108 0 184 76t77 186q0 108 -76 185q-77 77 -185 77h-385v-524z" />
    <glyph glyph-name="Q" unicode="Q" horiz-adv-x="1577" 
d="M755 -15q-303 1 -517 215t-215 517q1 303 215 517t517 215q303 0 518 -214q214 -215 214 -515t-207 -513l293 -207h-229l-168 119q-190 -134 -421 -134zM755 1317q-180 1 -328 -97t-219 -258l962 -678q185 178 185 430t-176 427q-176 176 -424 176zM755 117q164 0 305 83
l-894 630q-11 -56 -11 -113q0 -248 176 -424t424 -176z" />
    <glyph glyph-name="R" unicode="R" horiz-adv-x="1054" 
d="M225 649v-648h-132v1435h516q163 0 278 -116t115 -264t-82 -254t-209 -140l343 -662h-148l-337 649h-344zM225 781h384q108 0 185 76q76 77 76 185t-76 185q-77 77 -185 77h-384v-523z" />
    <glyph glyph-name="S" unicode="S" horiz-adv-x="969" 
d="M497 -14q-170 0 -300 75t-177 202l124 45q32 -86 124 -136t192 -54q152 -6 250 72t103 179q8 188 -344 287q-254 71 -363 198q-83 97 -78 218q9 205 174 306q131 80 317 71q224 -10 358 -154l-97 -90q-97 105 -255 112q-159 7 -259 -55t-106 -196q-8 -184 344 -283
q254 -71 363 -199q83 -98 78 -220q-8 -162 -143 -270t-305 -108z" />
    <glyph glyph-name="T" unicode="T" horiz-adv-x="933" 
d="M20 1436h885v-132h-376v-1304h-132v1304h-377v132z" />
    <glyph glyph-name="U" unicode="U" horiz-adv-x="1146" 
d="M88 479v954h132v-954q0 -150 106 -257t257 -107q150 0 257 107q106 107 106 257v954h132v-954q0 -205 -145 -350t-350 -145t-350 145t-145 350z" />
    <glyph glyph-name="V" unicode="V" horiz-adv-x="1174" 
d="M89 0v1436h132v-1260l796 1260h156l-908 -1436h-176z" />
    <glyph glyph-name="W" unicode="W" horiz-adv-x="2093" 
d="M1005 0v1189l-752 -1189h-176v1436h132v-1260l796 1260h132v-1260l796 1260h156l-908 -1436h-176z" />
    <glyph glyph-name="X" unicode="X" horiz-adv-x="1018" 
d="M864 1436h152l-430 -731l415 -705h-153l-339 575l-338 -575h-153l415 705l-431 731h153l354 -602z" />
    <glyph glyph-name="Y" unicode="Y" horiz-adv-x="1018" 
d="M576 0h-132v687l-441 749h153l354 -602l355 602h152l-441 -749v-687z" />
    <glyph glyph-name="Z" unicode="Z" horiz-adv-x="919" 
d="M63 1436h860l-706 -1304h639v-132h-861l707 1304h-639v132z" />
    <glyph glyph-name="bracketleft" unicode="[" horiz-adv-x="311" 
d="M309 -92h-274v1627h274v-132h-142v-1363h142v-132z" />
    <glyph glyph-name="backslash" unicode="\" horiz-adv-x="545" 
d="M-2 0h-146l688 1436h147z" />
    <glyph glyph-name="bracketright" unicode="]" horiz-adv-x="311" 
d="M0 1535h274v-1627h-274v132h142v1363h-142v132z" />
    <glyph glyph-name="asciicircum" unicode="^" horiz-adv-x="530" 
d="M155 1438h215l132 -226h-153l-87 148l-86 -148h-153z" />
    <glyph glyph-name="underscore" unicode="_" horiz-adv-x="530" 
d="M501 -162h-477v133h477v-133z" />
    <glyph glyph-name="grave" unicode="`" horiz-adv-x="226" 
d="M193 1721v-226h-56l-107 226h163z" />
    <glyph glyph-name="a" unicode="a" horiz-adv-x="1177" 
d="M959 491v769l-487 -769h487zM1090 1436v-1436h-131v359h-570l-227 -359h-156l908 1436h176z" />
    <glyph glyph-name="b" unicode="b" horiz-adv-x="1032" 
d="M93 0v1436h432q161 0 275 -114t115 -285q0 -170 -137 -288q102 -47 164 -143t61 -211q1 -163 -115 -279t-278 -116h-517zM225 132h385q108 0 185 77q76 77 76 185t-76 185q-77 76 -185 76h-385v-523zM225 787h300q106 0 182 76t76 183q0 106 -76 182t-182 76h-300v-517z
" />
    <glyph glyph-name="c" unicode="c" horiz-adv-x="1110" 
d="M759 118q177 0 326 97v-152q-154 -77 -326 -77q-303 0 -517 214t-215 518q1 304 215 518t517 214q172 0 326 -77v-152q-149 97 -326 97q-248 0 -424 -176t-176 -424t176 -424t424 -176z" />
    <glyph glyph-name="d" unicode="d" horiz-adv-x="1188" 
d="M87 0v1436h353q298 0 508 -210t210 -508t-210 -508t-508 -210h-353zM218 131h222q243 0 415 172t172 415t-172 415t-415 172h-222v-1174z" />
    <glyph glyph-name="e" unicode="e" horiz-adv-x="849" 
d="M90 1436h733v-132h-601v-518h475v-132h-475v-522h601v-132h-733v1436z" />
    <glyph glyph-name="f" unicode="f" horiz-adv-x="849" 
d="M90 1436h733v-132h-601v-518h475v-132h-475v-654h-132v1436z" />
    <glyph glyph-name="g" unicode="g" horiz-adv-x="1103" 
d="M750 -14q-304 0 -518 214t-214 518q0 302 214 516t518 215q149 0 285 -57l-52 -122q-111 47 -233 47q-248 1 -424 -175t-176 -424t176 -424t424 -176q100 0 194 32v506h-299v132h431v-727l-40 -17q-137 -58 -286 -58z" />
    <glyph glyph-name="h" unicode="h" horiz-adv-x="1139" 
d="M937 1436h132v-1436h-132v654h-728v-654h-132v1436h132v-650h728v650z" />
    <glyph glyph-name="i" unicode="i" horiz-adv-x="219" 
d="M40 0v1443h133v-1443h-133z" />
    <glyph glyph-name="j" unicode="j" horiz-adv-x="552" 
d="M349 1440h133v-972q0 -200 -142 -342t-343 -142v132q146 0 249 104t103 248v972z" />
    <glyph glyph-name="k" unicode="k" horiz-adv-x="1025" 
d="M223 1h-132v1434h132v-760l611 761h169l-574 -715l593 -721h-170l-508 616l-121 -151v-464z" />
    <glyph glyph-name="l" unicode="l" horiz-adv-x="919" 
d="M90 1436h132v-1304h667v-132h-799v1436z" />
    <glyph glyph-name="m" unicode="m" horiz-adv-x="1542" 
d="M1462 1436v-1435h-131v1116l-483 -1117h-144l-482 1117v-1116h-132v1435h138l548 -1270l549 1270h137z" />
    <glyph glyph-name="n" unicode="n" horiz-adv-x="1167" 
d="M948 1436h132v-1436h-142l-716 1197v-1197h-132v1436h143l715 -1197v1197z" />
    <glyph glyph-name="o" unicode="o" horiz-adv-x="1513" 
d="M23 717q1 303 215 517t517 215q303 0 518 -214q214 -215 214 -518q-1 -303 -215 -517t-517 -215q-303 1 -517 215t-215 517zM155 717q0 -248 176 -424t424 -176t424 176t176 424t-176 424t-424 176t-424 -176t-176 -424z" />
    <glyph glyph-name="p" unicode="p" horiz-adv-x="1032" 
d="M225 0h-132v1436h517q162 0 278 -116t115 -278q0 -163 -115 -279q-116 -115 -278 -115h-385v-648zM225 780h385q108 0 184 76t77 186q0 108 -76 185q-77 77 -185 77h-385v-524z" />
    <glyph glyph-name="q" unicode="q" horiz-adv-x="1577" 
d="M755 -15q-303 1 -517 215t-215 517q1 303 215 517t517 215q303 0 518 -214q214 -215 214 -515t-207 -513l293 -207h-229l-168 119q-190 -134 -421 -134zM755 1317q-180 1 -328 -97t-219 -258l962 -678q185 178 185 430t-176 427q-176 176 -424 176zM755 117q164 0 305 83
l-894 630q-11 -56 -11 -113q0 -248 176 -424t424 -176z" />
    <glyph glyph-name="r" unicode="r" horiz-adv-x="1054" 
d="M225 649v-648h-132v1435h516q163 0 278 -116t115 -264t-82 -254t-209 -140l343 -662h-148l-337 649h-344zM225 781h384q108 0 185 76q76 77 76 185t-76 185q-77 77 -185 77h-384v-523z" />
    <glyph glyph-name="s" unicode="s" horiz-adv-x="976" 
d="M497 -14q-170 0 -300 75t-177 202l124 45q32 -86 124 -136t192 -54q152 -6 250 72t103 179q8 188 -344 287q-254 71 -363 198q-83 97 -78 218q9 205 174 306q131 80 317 71q224 -10 358 -154l-97 -90q-97 105 -255 112q-159 7 -259 -55t-106 -196q-8 -184 344 -283
q254 -71 363 -199q83 -98 78 -220q-8 -162 -143 -270t-305 -108z" />
    <glyph glyph-name="t" unicode="t" horiz-adv-x="933" 
d="M20 1436h885v-132h-376v-1304h-132v1304h-377v132z" />
    <glyph glyph-name="u" unicode="u" horiz-adv-x="1146" 
d="M88 479v954h132v-954q0 -150 106 -257t257 -107q150 0 257 107q106 107 106 257v954h132v-954q0 -205 -145 -350t-350 -145t-350 145t-145 350z" />
    <glyph glyph-name="v" unicode="v" horiz-adv-x="1174" 
d="M89 0v1436h132v-1260l796 1260h156l-908 -1436h-176z" />
    <glyph glyph-name="w" unicode="w" horiz-adv-x="2093" 
d="M1005 0v1189l-752 -1189h-176v1436h132v-1260l796 1260h132v-1260l796 1260h156l-908 -1436h-176z" />
    <glyph glyph-name="x" unicode="x" horiz-adv-x="1018" 
d="M864 1436h152l-430 -731l415 -705h-153l-339 575l-338 -575h-153l415 705l-431 731h153l354 -602z" />
    <glyph glyph-name="y" unicode="y" horiz-adv-x="1018" 
d="M576 0h-132v687l-441 749h153l354 -602l355 602h152l-441 -749v-687z" />
    <glyph glyph-name="z" unicode="z" horiz-adv-x="919" 
d="M63 1436h860l-706 -1304h639v-132h-861l707 1304h-639v132z" />
    <glyph glyph-name="braceleft" unicode="{" 
 />
    <glyph glyph-name="bar" unicode="|" 
 />
    <glyph glyph-name="braceright" unicode="}" 
 />
    <glyph glyph-name="asciitilde" unicode="~" horiz-adv-x="601" 
d="M442 1217q-63 0 -128 35t-84 43q-59 28 -105 -34l-106 79q39 52 112 83t155 -8q22 -10 72 -37t72 -29t52 24l88 -99q-65 -57 -128 -57z" />
    <glyph glyph-name="exclamdown" unicode="&#xa1;" horiz-adv-x="336" 
d="M104 777h132v-1152h-132v1152zM170 891q-40 0 -67 28q-28 27 -28 67t28 68q27 28 67 28t68 -28t28 -68t-28 -67q-28 -28 -68 -28z" />
    <glyph glyph-name="cent" unicode="&#xa2;" horiz-adv-x="919" 
d="M609 -20h-132v202q-194 32 -324 184t-130 352t130 352t324 184v202h132v-197q156 -12 282 -106v-183q-108 139 -282 157v-818q174 18 282 157v-183q-126 -94 -282 -106v-197zM155 720q-1 -146 91 -258t231 -144v802q-139 -31 -231 -143q-92 -111 -91 -257z" />
    <glyph glyph-name="sterling" unicode="&#xa3;" horiz-adv-x="751" 
d="M597 410h-357q-11 -135 -42 -278h501v-132h-668l20 82q107 434 19 878q-15 78 -20 113q-22 145 78 260t268 115q104 0 192 -62t130 -165l-121 -51q-61 146 -201 146q-108 0 -168 -70t-47 -154q4 -32 19 -107q49 -251 47 -443h350v-132z" />
    <glyph glyph-name="currency" unicode="&#xa4;" 
 />
    <glyph glyph-name="yen" unicode="&#xa5;" horiz-adv-x="1018" 
d="M866 784v-132h-292v-89h292v-132h-292v-431h-132v431h-291v132h291v89h-291v132h234l-384 652h153l354 -602l355 602h152l-384 -652h235z" />
    <glyph glyph-name="brokenbar" unicode="&#xa6;" 
 />
    <glyph glyph-name="section" unicode="&#xa7;" 
 />
    <glyph glyph-name="dieresis" unicode="&#xa8;" horiz-adv-x="488" 
d="M124 1718q40 0 68 -28t28 -68t-28 -67q-28 -28 -68 -28t-67 28q-28 27 -28 67t28 68q27 28 67 28zM350 1718q40 0 68 -28t28 -68t-28 -67q-28 -28 -68 -28t-67 28q-28 27 -28 67t28 68q27 28 67 28z" />
    <glyph glyph-name="copyright" unicode="&#xa9;" horiz-adv-x="1153" 
d="M607 552q-144 0 -246 102t-102 244q0 144 102 246t246 102q56 0 109 -18v-145q-50 31 -124 31t-138 -63t-63 -152q-1 -89 63 -152t138 -63t124 30v-145q-53 -17 -109 -17zM579 1442q225 0 384 -160t159 -384t-159 -383t-384 -159t-384 159t-159 383t159 384t384 160z
M990 899q0 171 -120 291t-291 120t-291 -120t-120 -291t120 -291t291 -120t291 120t120 291z" />
    <glyph glyph-name="ordfeminine" unicode="&#xaa;" horiz-adv-x="648" 
 />
    <glyph glyph-name="guillemotleft" unicode="&#xab;" horiz-adv-x="799" 
 />
    <glyph glyph-name="logicalnot" unicode="&#xac;" 
 />
    <glyph glyph-name="registered" unicode="&#xae;" horiz-adv-x="1153" 
d="M28 902q0 224 159 384t384 159q225 1 384 -159t159 -384t-159 -384q-159 -159 -384 -159t-384 159q-159 160 -159 384zM982 894q0 178 -120 298t-291 121q-171 -1 -291 -121t-120 -290t120 -290t282 -121q161 0 273 96h5l-2 3q144 126 144 304zM495 815v-228h-132v629
h251q82 0 141 -59t59 -142q0 -119 -105 -176l129 -249q-2 -1 -3 -3h-143l-119 228h-78zM495 1084v-137h119q28 0 48 20q20 21 20 49t-20 48t-48 20h-119z" />
    <glyph glyph-name="macron" unicode="&#xaf;" horiz-adv-x="670" 
 />
    <glyph glyph-name="degree" unicode="&#xb0;" horiz-adv-x="233" 
d="M23 1347q0 38 27 65t65 27t65 -27t27 -65t-27 -65t-65 -27t-65 27t-27 65zM115 1327q20 0 20 20q0 8 -6 14t-14 6t-14 -6t-6 -14q0 -20 20 -20z" />
    <glyph glyph-name="plusminus" unicode="&#xb1;" 
 />
    <glyph glyph-name="uni00B2" unicode="&#xb2;" 
 />
    <glyph glyph-name="uni00B3" unicode="&#xb3;" 
 />
    <glyph glyph-name="acute" unicode="&#xb4;" horiz-adv-x="226" 
d="M30 1721h163l-107 -226h-56v226z" />
    <glyph glyph-name="mu" unicode="&#xb5;" horiz-adv-x="1180" 
 />
    <glyph glyph-name="paragraph" unicode="&#xb6;" horiz-adv-x="1024" 
 />
    <glyph glyph-name="periodcentered" unicode="&#xb7;" horiz-adv-x="508" 
 />
    <glyph glyph-name="periodcentered" unicode="&#x2219;" horiz-adv-x="508" 
 />
    <glyph glyph-name="cedilla" unicode="&#xb8;" horiz-adv-x="1024" 
 />
    <glyph glyph-name="uni00B9" unicode="&#xb9;" 
 />
    <glyph glyph-name="ordmasculine" unicode="&#xba;" horiz-adv-x="718" 
 />
    <glyph glyph-name="guillemotright" unicode="&#xbb;" horiz-adv-x="944" 
 />
    <glyph glyph-name="onequarter" unicode="&#xbc;" horiz-adv-x="1708" 
 />
    <glyph glyph-name="onehalf" unicode="&#xbd;" horiz-adv-x="1964" 
 />
    <glyph glyph-name="threequarters" unicode="&#xbe;" horiz-adv-x="1708" 
 />
    <glyph glyph-name="questiondown" unicode="&#xbf;" horiz-adv-x="644" 
d="M358 893q-40 0 -68 28q-28 27 -28 67t28 68t68 28t67 -28q28 -28 28 -68t-28 -67q-27 -28 -67 -28zM431 785q0 -212 -24 -327t-140 -251t-116 -230q0 -93 60 -159t152 -66t157 72l98 -89q-104 -115 -254 -115t-247 104q-98 104 -98 262q0 88 37 154q36 66 86 124t63 77
q62 87 78 167t16 277h132z" />
    <glyph glyph-name="Agrave" unicode="&#xc0;" horiz-adv-x="1177" 
d="M1090 1721v-226h-56l-107 226h163zM959 491v769l-487 -769h487zM1090 1436v-1436h-131v359h-570l-227 -359h-156l908 1436h176z" />
    <glyph glyph-name="Aacute" unicode="&#xc1;" horiz-adv-x="1177" 
d="M916 1721h163l-107 -226h-56v226zM959 491v769l-487 -769h487zM1090 1436v-1436h-131v359h-570l-227 -359h-156l908 1436h176z" />
    <glyph glyph-name="Acircumflex" unicode="&#xc2;" horiz-adv-x="1177" 
d="M892 1721h214l132 -226h-153l-86 148l-87 -148h-153zM959 491v769l-487 -769h487zM1090 1436v-1436h-131v359h-570l-227 -359h-156l908 1436h176z" />
    <glyph glyph-name="Atilde" unicode="&#xc3;" horiz-adv-x="1177" 
d="M962 1493q-64 0 -128 35q-65 35 -83 43q-60 28 -106 -34l-106 79q39 52 112 83t156 -8q21 -10 71 -37t72 -29t52 24l88 -99q-64 -57 -128 -57zM959 491v769l-487 -769h487zM1090 1436v-1436h-131v359h-570l-227 -359h-156l908 1436h176z" />
    <glyph glyph-name="Adieresis" unicode="&#xc4;" horiz-adv-x="1177" 
d="M768 1718q40 0 68 -28t28 -68t-28 -67q-28 -28 -68 -28t-67 28q-28 27 -28 67t28 68q27 28 67 28zM994 1718q40 0 68 -28t28 -68t-28 -67q-28 -28 -68 -28t-67 28q-28 27 -28 67t28 68q27 28 67 28zM959 491v769l-487 -769h487zM1090 1436v-1436h-131v359h-570l-227 -359
h-156l908 1436h176z" />
    <glyph glyph-name="Aring" unicode="&#xc5;" horiz-adv-x="1177" 
d="M902 1623q0 38 27 65t65 27t66 -27q26 -27 26 -65t-26 -65t-66 -27q-38 0 -65 27t-27 65zM1015 1623q0 20 -21 20q-8 0 -14 -6t-6 -14q0 -20 20 -20t21 20zM959 491v769l-487 -769h487zM1090 1436v-1436h-131v359h-570l-227 -359h-156l908 1436h176z" />
    <glyph glyph-name="AE" unicode="&#xc6;" horiz-adv-x="1711" 
d="M952 491v769l-487 -769h487zM1683 1436v-133h-600v-517h475v-131h-475v-522h600v-132h-731v358h-570l-227 -359h-156l908 1436h776z" />
    <glyph glyph-name="Ccedilla" unicode="&#xc7;" horiz-adv-x="1047" 
d="M753 119q138 0 261 60v-144q-96 -36 -198 -45v-42q134 -37 134 -157q0 -70 -58 -118t-142 -48t-142 48t-58 118h132q0 -34 68 -34q68 1 68 35t-68 34h-66v165q-278 26 -470 235t-192 502t214 508q215 214 517 214q135 0 261 -48v-143q-123 59 -261 59q-247 0 -423 -176
t-176 -423q0 -248 176 -424t423 -176z" />
    <glyph glyph-name="Egrave" unicode="&#xc8;" horiz-adv-x="849" 
d="M538 1721v-226h-56l-107 226h163zM90 1436h733v-132h-601v-518h475v-132h-475v-522h601v-132h-733v1436z" />
    <glyph glyph-name="Eacute" unicode="&#xc9;" horiz-adv-x="849" 
d="M375 1721h163l-107 -226h-56v226zM90 1436h733v-132h-601v-518h475v-132h-475v-522h601v-132h-733v1436z" />
    <glyph glyph-name="Ecircumflex" unicode="&#xca;" horiz-adv-x="849" 
d="M349 1721h215l132 -226h-153l-87 148l-86 -148h-153zM90 1436h733v-132h-601v-518h475v-132h-475v-522h601v-132h-733v1436z" />
    <glyph glyph-name="Edieresis" unicode="&#xcb;" horiz-adv-x="849" 
d="M358 1718q40 0 68 -28t28 -68t-28 -67q-28 -28 -68 -28t-67 28q-28 27 -28 67t28 68q27 28 67 28zM584 1718q40 0 68 -28t28 -68t-28 -67q-28 -28 -68 -28t-67 28q-28 27 -28 67t28 68q27 28 67 28zM90 1436h733v-132h-601v-518h475v-132h-475v-522h601v-132h-733v1436z
" />
    <glyph glyph-name="Igrave" unicode="&#xcc;" horiz-adv-x="219" 
d="M173 1721v-226h-56l-107 226h163zM40 0v1443h133v-1443h-133z" />
    <glyph glyph-name="Iacute" unicode="&#xcd;" horiz-adv-x="219" 
d="M40 1721h163l-107 -226h-56v226zM40 0v1443h133v-1443h-133z" />
    <glyph glyph-name="Icircumflex" unicode="&#xce;" horiz-adv-x="219" 
d="M0 1721h215l132 -226h-153l-87 148l-86 -148h-153zM40 0v1443h133v-1443h-133z" />
    <glyph glyph-name="Idieresis" unicode="&#xcf;" horiz-adv-x="219" 
d="M-2 1718q40 0 67 -28q28 -28 28 -68t-28 -67q-27 -28 -67 -28t-68 28q-28 27 -28 67t28 68t68 28zM224 1718q40 0 67 -28q28 -28 28 -68t-28 -67q-27 -28 -67 -28t-68 28q-28 27 -28 67t28 68t68 28zM40 0v1443h133v-1443h-133z" />
    <glyph glyph-name="Eth" unicode="&#xd0;" horiz-adv-x="1195" 
d="M93 1436h353q298 0 508 -210t210 -508t-210 -508t-508 -210h-353v655h-95v131h95v650zM224 131h222q242 0 414 172t172 415t-172 415t-414 172h-222v-519h247v-131h-247v-524z" />
    <glyph glyph-name="Ntilde" unicode="&#xd1;" horiz-adv-x="1167" 
d="M733 1493q-63 0 -129 35t-83 43q-60 28 -105 -34l-106 79q38 52 111 83t156 -8q21 -10 71 -37t72 -29t52 24l88 -99q-64 -57 -127 -57zM948 1436h132v-1436h-142l-716 1197v-1197h-132v1436h143l715 -1197v1197z" />
    <glyph glyph-name="Ograve" unicode="&#xd2;" horiz-adv-x="1513" 
d="M837 1721v-226h-56l-107 226h163zM23 717q1 303 215 517t517 215q303 0 518 -214q214 -215 214 -518q-1 -303 -215 -517t-517 -215q-303 1 -517 215t-215 517zM155 717q0 -248 176 -424t424 -176t424 176t176 424t-176 424t-424 176t-424 -176t-176 -424z" />
    <glyph glyph-name="Oacute" unicode="&#xd3;" horiz-adv-x="1513" 
d="M674 1721h163l-107 -226h-56v226zM23 717q1 303 215 517t517 215q303 0 518 -214q214 -215 214 -518q-1 -303 -215 -517t-517 -215q-303 1 -517 215t-215 517zM155 717q0 -248 176 -424t424 -176t424 176t176 424t-176 424t-424 176t-424 -176t-176 -424z" />
    <glyph glyph-name="Ocircumflex" unicode="&#xd4;" horiz-adv-x="1513" 
d="M648 1721h214l132 -226h-153l-86 148l-86 -148h-153zM23 717q1 303 215 517t517 215q303 0 518 -214q214 -215 214 -518q-1 -303 -215 -517t-517 -215q-303 1 -517 215t-215 517zM155 717q0 -248 176 -424t424 -176t424 176t176 424t-176 424t-424 176t-424 -176
t-176 -424z" />
    <glyph glyph-name="Otilde" unicode="&#xd5;" horiz-adv-x="1513" 
d="M903 1493q-63 0 -129 35t-83 43q-60 28 -105 -34l-106 79q38 52 111 83t156 -8q21 -10 71 -37t72 -29t52 24l88 -99q-64 -57 -127 -57zM23 717q1 303 215 517t517 215q303 0 518 -214q214 -215 214 -518q-1 -303 -215 -517t-517 -215q-303 1 -517 215t-215 517zM155 717
q0 -248 176 -424t424 -176t424 176t176 424t-176 424t-424 176t-424 -176t-176 -424z" />
    <glyph glyph-name="Odieresis" unicode="&#xd6;" horiz-adv-x="1513" 
d="M646 1718q40 0 67 -28q28 -28 28 -68t-28 -67q-27 -28 -67 -28t-68 28q-28 27 -28 67t28 68t68 28zM872 1718q40 0 67 -28q28 -28 28 -68t-28 -67q-27 -28 -67 -28t-68 28q-28 27 -28 67t28 68t68 28zM23 717q1 303 215 517t517 215q303 0 518 -214q214 -215 214 -518
q-1 -303 -215 -517t-517 -215q-303 1 -517 215t-215 517zM155 717q0 -248 176 -424t424 -176t424 176t176 424t-176 424t-424 176t-424 -176t-176 -424z" />
    <glyph glyph-name="multiply" unicode="&#xd7;" 
 />
    <glyph glyph-name="Oslash" unicode="&#xd8;" horiz-adv-x="1614" 
 />
    <glyph glyph-name="Ugrave" unicode="&#xd9;" horiz-adv-x="1146" 
d="M665 1721v-226h-56l-107 226h163zM88 479v954h132v-954q0 -150 106 -257t257 -107q150 0 257 107q106 107 106 257v954h132v-954q0 -205 -145 -350t-350 -145t-350 145t-145 350z" />
    <glyph glyph-name="Uacute" unicode="&#xda;" horiz-adv-x="1146" 
d="M502 1721h163l-107 -226h-56v226zM88 479v954h132v-954q0 -150 106 -257t257 -107q150 0 257 107q106 107 106 257v954h132v-954q0 -205 -145 -350t-350 -145t-350 145t-145 350z" />
    <glyph glyph-name="Ucircumflex" unicode="&#xdb;" horiz-adv-x="1146" 
d="M476 1721h214l132 -226h-153l-86 148l-86 -148h-153zM88 479v954h132v-954q0 -150 106 -257t257 -107q150 0 257 107q106 107 106 257v954h132v-954q0 -205 -145 -350t-350 -145t-350 145t-145 350z" />
    <glyph glyph-name="Udieresis" unicode="&#xdc;" horiz-adv-x="1146" 
d="M468 1718q40 0 68 -28t28 -68t-28 -67q-28 -28 -68 -28t-67 28q-28 27 -28 67t28 68q27 28 67 28zM694 1718q40 0 68 -28t28 -68t-28 -67q-28 -28 -68 -28t-67 28q-28 27 -28 67t28 68q27 28 67 28zM88 479v954h132v-954q0 -150 106 -257t257 -107q150 0 257 107
q106 107 106 257v954h132v-954q0 -205 -145 -350t-350 -145t-350 145t-145 350z" />
    <glyph glyph-name="Yacute" unicode="&#xdd;" horiz-adv-x="1018" 
d="M429 1721h163l-107 -226h-56v226zM576 0h-132v687l-441 749h153l354 -602l355 602h152l-441 -749v-687z" />
    <glyph glyph-name="Thorn" unicode="&#xde;" horiz-adv-x="1266" 
d="M222 1286h438q236 0 403 -167t167 -403t-167 -403t-403 -167h-438v-146h-132v1436h132v-150zM222 278h438q182 0 310 128t128 310t-128 310t-310 128h-438v-876z" />
    <glyph glyph-name="germandbls" unicode="&#xdf;" horiz-adv-x="928" 
d="M828 1079q0 -185 -151 -296q96 -57 153 -155t57 -213q1 -178 -125 -304t-303 -126q-97 0 -184 41l57 119q60 -28 127 -28q122 -1 209 87t87 211t-87 209t-209 87v132q97 -1 167 69t70 168t-70 168t-168 69q-98 1 -168 -69t-69 -169v-1079h-132v1079q0 153 108 262
q109 108 261 108t262 -108q108 -109 108 -262z" />
    <glyph glyph-name="agrave" unicode="&#xe0;" horiz-adv-x="1177" 
d="M1090 1721v-226h-56l-107 226h163zM959 491v769l-487 -769h487zM1090 1436v-1436h-131v359h-570l-227 -359h-156l908 1436h176z" />
    <glyph glyph-name="aacute" unicode="&#xe1;" horiz-adv-x="1177" 
d="M916 1721h163l-107 -226h-56v226zM959 491v769l-487 -769h487zM1090 1436v-1436h-131v359h-570l-227 -359h-156l908 1436h176z" />
    <glyph glyph-name="acircumflex" unicode="&#xe2;" horiz-adv-x="1177" 
d="M892 1721h214l132 -226h-153l-86 148l-87 -148h-153zM959 491v769l-487 -769h487zM1090 1436v-1436h-131v359h-570l-227 -359h-156l908 1436h176z" />
    <glyph glyph-name="atilde" unicode="&#xe3;" horiz-adv-x="1177" 
d="M962 1493q-64 0 -128 35q-65 35 -83 43q-60 28 -106 -34l-106 79q39 52 112 83t156 -8q21 -10 71 -37t72 -29t52 24l88 -99q-64 -57 -128 -57zM959 491v769l-487 -769h487zM1090 1436v-1436h-131v359h-570l-227 -359h-156l908 1436h176z" />
    <glyph glyph-name="adieresis" unicode="&#xe4;" horiz-adv-x="1177" 
d="M768 1718q40 0 68 -28t28 -68t-28 -67q-28 -28 -68 -28t-67 28q-28 27 -28 67t28 68q27 28 67 28zM994 1718q40 0 68 -28t28 -68t-28 -67q-28 -28 -68 -28t-67 28q-28 27 -28 67t28 68q27 28 67 28zM959 491v769l-487 -769h487zM1090 1436v-1436h-131v359h-570l-227 -359
h-156l908 1436h176z" />
    <glyph glyph-name="aring" unicode="&#xe5;" horiz-adv-x="1177" 
d="M902 1623q0 38 27 65t65 27t66 -27q26 -27 26 -65t-26 -65t-66 -27q-38 0 -65 27t-27 65zM1015 1623q0 20 -21 20q-8 0 -14 -6t-6 -14q0 -20 20 -20t21 20zM959 491v769l-487 -769h487zM1090 1436v-1436h-131v359h-570l-227 -359h-156l908 1436h176z" />
    <glyph glyph-name="ae" unicode="&#xe6;" horiz-adv-x="1711" 
d="M952 491v769l-487 -769h487zM1683 1436v-133h-600v-517h475v-131h-475v-522h600v-132h-731v358h-570l-227 -359h-156l908 1436h776z" />
    <glyph glyph-name="ccedilla" unicode="&#xe7;" horiz-adv-x="1047" 
d="M753 119q138 0 261 60v-144q-96 -36 -198 -45v-42q134 -37 134 -157q0 -70 -58 -118t-142 -48t-142 48t-58 118h132q0 -34 68 -34q68 1 68 35t-68 34h-66v165q-278 26 -470 235t-192 502t214 508q215 214 517 214q135 0 261 -48v-143q-123 59 -261 59q-247 0 -423 -176
t-176 -423q0 -248 176 -424t423 -176z" />
    <glyph glyph-name="egrave" unicode="&#xe8;" horiz-adv-x="849" 
d="M538 1721v-226h-56l-107 226h163zM90 1436h733v-132h-601v-518h475v-132h-475v-522h601v-132h-733v1436z" />
    <glyph glyph-name="eacute" unicode="&#xe9;" horiz-adv-x="849" 
d="M375 1721h163l-107 -226h-56v226zM90 1436h733v-132h-601v-518h475v-132h-475v-522h601v-132h-733v1436z" />
    <glyph glyph-name="ecircumflex" unicode="&#xea;" horiz-adv-x="849" 
d="M349 1721h215l132 -226h-153l-87 148l-86 -148h-153zM90 1436h733v-132h-601v-518h475v-132h-475v-522h601v-132h-733v1436z" />
    <glyph glyph-name="edieresis" unicode="&#xeb;" horiz-adv-x="849" 
d="M358 1718q40 0 68 -28t28 -68t-28 -67q-28 -28 -68 -28t-67 28q-28 27 -28 67t28 68q27 28 67 28zM584 1718q40 0 68 -28t28 -68t-28 -67q-28 -28 -68 -28t-67 28q-28 27 -28 67t28 68q27 28 67 28zM90 1436h733v-132h-601v-518h475v-132h-475v-522h601v-132h-733v1436z
" />
    <glyph glyph-name="igrave" unicode="&#xec;" horiz-adv-x="219" 
d="M173 1721v-226h-56l-107 226h163zM40 0v1443h133v-1443h-133z" />
    <glyph glyph-name="iacute" unicode="&#xed;" horiz-adv-x="219" 
d="M40 1721h163l-107 -226h-56v226zM40 0v1443h133v-1443h-133z" />
    <glyph glyph-name="icircumflex" unicode="&#xee;" horiz-adv-x="219" 
d="M0 1721h215l132 -226h-153l-87 148l-86 -148h-153zM40 0v1443h133v-1443h-133z" />
    <glyph glyph-name="idieresis" unicode="&#xef;" horiz-adv-x="219" 
d="M-2 1718q40 0 67 -28q28 -28 28 -68t-28 -67q-27 -28 -67 -28t-68 28q-28 27 -28 67t28 68t68 28zM224 1718q40 0 67 -28q28 -28 28 -68t-28 -67q-27 -28 -67 -28t-68 28q-28 27 -28 67t28 68t68 28zM40 0v1443h133v-1443h-133z" />
    <glyph glyph-name="eth" unicode="&#xf0;" horiz-adv-x="1195" 
d="M93 1436h353q298 0 508 -210t210 -508t-210 -508t-508 -210h-353v655h-95v131h95v650zM224 131h222q242 0 414 172t172 415t-172 415t-414 172h-222v-519h247v-131h-247v-524z" />
    <glyph glyph-name="ntilde" unicode="&#xf1;" horiz-adv-x="1167" 
d="M733 1493q-63 0 -129 35t-83 43q-60 28 -105 -34l-106 79q38 52 111 83t156 -8q21 -10 71 -37t72 -29t52 24l88 -99q-64 -57 -127 -57zM948 1436h132v-1436h-142l-716 1197v-1197h-132v1436h143l715 -1197v1197z" />
    <glyph glyph-name="ograve" unicode="&#xf2;" horiz-adv-x="1513" 
d="M837 1721v-226h-56l-107 226h163zM23 717q1 303 215 517t517 215q303 0 518 -214q214 -215 214 -518q-1 -303 -215 -517t-517 -215q-303 1 -517 215t-215 517zM155 717q0 -248 176 -424t424 -176t424 176t176 424t-176 424t-424 176t-424 -176t-176 -424z" />
    <glyph glyph-name="oacute" unicode="&#xf3;" horiz-adv-x="1513" 
d="M674 1721h163l-107 -226h-56v226zM23 717q1 303 215 517t517 215q303 0 518 -214q214 -215 214 -518q-1 -303 -215 -517t-517 -215q-303 1 -517 215t-215 517zM155 717q0 -248 176 -424t424 -176t424 176t176 424t-176 424t-424 176t-424 -176t-176 -424z" />
    <glyph glyph-name="ocircumflex" unicode="&#xf4;" horiz-adv-x="1513" 
d="M648 1721h214l132 -226h-153l-86 148l-86 -148h-153zM23 717q1 303 215 517t517 215q303 0 518 -214q214 -215 214 -518q-1 -303 -215 -517t-517 -215q-303 1 -517 215t-215 517zM155 717q0 -248 176 -424t424 -176t424 176t176 424t-176 424t-424 176t-424 -176
t-176 -424z" />
    <glyph glyph-name="otilde" unicode="&#xf5;" horiz-adv-x="1513" 
d="M903 1493q-63 0 -129 35t-83 43q-60 28 -105 -34l-106 79q38 52 111 83t156 -8q21 -10 71 -37t72 -29t52 24l88 -99q-64 -57 -127 -57zM23 717q1 303 215 517t517 215q303 0 518 -214q214 -215 214 -518q-1 -303 -215 -517t-517 -215q-303 1 -517 215t-215 517zM155 717
q0 -248 176 -424t424 -176t424 176t176 424t-176 424t-424 176t-424 -176t-176 -424z" />
    <glyph glyph-name="odieresis" unicode="&#xf6;" horiz-adv-x="1513" 
d="M646 1718q40 0 67 -28q28 -28 28 -68t-28 -67q-27 -28 -67 -28t-68 28q-28 27 -28 67t28 68t68 28zM872 1718q40 0 67 -28q28 -28 28 -68t-28 -67q-27 -28 -67 -28t-68 28q-28 27 -28 67t28 68t68 28zM23 717q1 303 215 517t517 215q303 0 518 -214q214 -215 214 -518
q-1 -303 -215 -517t-517 -215q-303 1 -517 215t-215 517zM155 717q0 -248 176 -424t424 -176t424 176t176 424t-176 424t-424 176t-424 -176t-176 -424z" />
    <glyph glyph-name="divide" unicode="&#xf7;" 
 />
    <glyph glyph-name="oslash" unicode="&#xf8;" horiz-adv-x="1010" 
 />
    <glyph glyph-name="ugrave" unicode="&#xf9;" horiz-adv-x="1146" 
d="M665 1721v-226h-56l-107 226h163zM88 479v954h132v-954q0 -150 106 -257t257 -107q150 0 257 107q106 107 106 257v954h132v-954q0 -205 -145 -350t-350 -145t-350 145t-145 350z" />
    <glyph glyph-name="uacute" unicode="&#xfa;" horiz-adv-x="1146" 
d="M502 1721h163l-107 -226h-56v226zM88 479v954h132v-954q0 -150 106 -257t257 -107q150 0 257 107q106 107 106 257v954h132v-954q0 -205 -145 -350t-350 -145t-350 145t-145 350z" />
    <glyph glyph-name="ucircumflex" unicode="&#xfb;" horiz-adv-x="1146" 
d="M476 1721h214l132 -226h-153l-86 148l-86 -148h-153zM88 479v954h132v-954q0 -150 106 -257t257 -107q150 0 257 107q106 107 106 257v954h132v-954q0 -205 -145 -350t-350 -145t-350 145t-145 350z" />
    <glyph glyph-name="udieresis" unicode="&#xfc;" horiz-adv-x="1146" 
d="M468 1718q40 0 68 -28t28 -68t-28 -67q-28 -28 -68 -28t-67 28q-28 27 -28 67t28 68q27 28 67 28zM694 1718q40 0 68 -28t28 -68t-28 -67q-28 -28 -68 -28t-67 28q-28 27 -28 67t28 68q27 28 67 28zM88 479v954h132v-954q0 -150 106 -257t257 -107q150 0 257 107
q106 107 106 257v954h132v-954q0 -205 -145 -350t-350 -145t-350 145t-145 350z" />
    <glyph glyph-name="yacute" unicode="&#xfd;" horiz-adv-x="1018" 
d="M429 1721h163l-107 -226h-56v226zM576 0h-132v687l-441 749h153l354 -602l355 602h152l-441 -749v-687z" />
    <glyph glyph-name="thorn" unicode="&#xfe;" horiz-adv-x="1266" 
d="M222 1286h438q236 0 403 -167t167 -403t-167 -403t-403 -167h-438v-146h-132v1436h132v-150zM222 278h438q182 0 310 128t128 310t-128 310t-310 128h-438v-876z" />
    <glyph glyph-name="ydieresis" unicode="&#xff;" horiz-adv-x="1018" 
d="M392 1718q40 0 68 -28t28 -68t-28 -67q-28 -28 -68 -28t-67 28q-28 27 -28 67t28 68q27 28 67 28zM618 1718q40 0 68 -28t28 -68t-28 -67q-28 -28 -68 -28t-67 28q-28 27 -28 67t28 68q27 28 67 28zM576 0h-132v687l-441 749h153l354 -602l355 602h152l-441 -749v-687z
" />
    <glyph glyph-name="dotlessi" unicode="&#x131;" horiz-adv-x="219" 
d="M40 0v1443h133v-1443h-133z" />
    <glyph glyph-name="circumflex" unicode="&#x2c6;" horiz-adv-x="1024" 
 />
    <glyph glyph-name="caron" unicode="&#x2c7;" horiz-adv-x="1024" 
 />
    <glyph glyph-name="uni02C9" unicode="&#x2c9;" horiz-adv-x="1024" 
 />
    <glyph glyph-name="breve" unicode="&#x2d8;" horiz-adv-x="1024" 
 />
    <glyph glyph-name="dotaccent" unicode="&#x2d9;" horiz-adv-x="1024" 
 />
    <glyph glyph-name="ring" unicode="&#x2da;" horiz-adv-x="233" 
d="M23 1347q0 38 27 65t65 27t65 -27t27 -65t-27 -65t-65 -27t-65 27t-27 65zM115 1327q20 0 20 20q0 8 -6 14t-14 6t-14 -6t-6 -14q0 -20 20 -20z" />
    <glyph glyph-name="ogonek" unicode="&#x2db;" horiz-adv-x="1024" 
 />
    <glyph glyph-name="tilde" unicode="&#x2dc;" horiz-adv-x="1024" 
 />
    <glyph glyph-name="hungarumlaut" unicode="&#x2dd;" horiz-adv-x="1024" 
 />
    <glyph glyph-name="endash" unicode="&#x2013;" horiz-adv-x="1108" 
 />
    <glyph glyph-name="emdash" unicode="&#x2014;" horiz-adv-x="2048" 
 />
    <glyph glyph-name="quoteleft" unicode="&#x2018;" horiz-adv-x="255" 
d="M125 1351q40 0 68 -28t28 -68t-28 -68q-27 -28 -63 -28t-63 20q-25 20 -34 50q-11 55 2 105q20 81 99 115l27 -37q-38 -23 -49 -62q7 1 13 1z" />
    <glyph glyph-name="quoteright" unicode="&#x2019;" horiz-adv-x="255" 
d="M124 1257q-40 0 -68 28t-28 68t28 68t64 28t61 -20q26 -20 35 -50q11 -55 -2 -105q-20 -81 -99 -115l-27 37q38 23 49 62q-7 -1 -13 -1z" />
    <glyph glyph-name="quotesinglbase" unicode="&#x201a;" horiz-adv-x="557" 
 />
    <glyph glyph-name="quotedblleft" unicode="&#x201c;" horiz-adv-x="467" 
d="M125 1351q40 0 68 -28t28 -68t-28 -68q-27 -28 -63 -28t-63 20q-25 20 -34 50q-11 55 2 105q20 81 99 115l27 -37q-38 -23 -49 -62q7 1 13 1zM337 1351q40 0 68 -28t28 -68t-28 -68q-27 -28 -63 -28t-63 20q-25 20 -34 50q-11 55 2 105q20 81 99 115l27 -37
q-38 -23 -49 -62q7 1 13 1z" />
    <glyph glyph-name="quotedblright" unicode="&#x201d;" horiz-adv-x="467" 
d="M336 1257q-40 0 -68 28t-28 68t28 68t64 28t61 -20q26 -20 35 -50q11 -55 -2 -105q-20 -81 -99 -115l-27 37q38 23 49 62q-7 -1 -13 -1zM124 1257q-40 0 -68 28t-28 68t28 68t64 28t61 -20q26 -20 35 -50q11 -55 -2 -105q-20 -81 -99 -115l-27 37q38 23 49 62
q-7 -1 -13 -1z" />
    <glyph glyph-name="quotedblbase" unicode="&#x201e;" horiz-adv-x="910" 
 />
    <glyph glyph-name="dagger" unicode="&#x2020;" 
 />
    <glyph glyph-name="daggerdbl" unicode="&#x2021;" 
 />
    <glyph glyph-name="bullet" unicode="&#x2022;" horiz-adv-x="354" 
d="M170 856q40 0 68 -28t28 -68t-28 -68t-68 -27q-40 -1 -67 27q-28 28 -28 68t28 68q27 28 67 28z" />
    <glyph glyph-name="ellipsis" unicode="&#x2026;" horiz-adv-x="2048" 
 />
    <glyph glyph-name="guilsinglleft" unicode="&#x2039;" horiz-adv-x="799" 
 />
    <glyph glyph-name="guilsinglright" unicode="&#x203a;" horiz-adv-x="799" 
 />
    <glyph glyph-name="fraction" unicode="&#x2044;" horiz-adv-x="342" 
 />
    <glyph glyph-name="fraction" unicode="&#x2215;" horiz-adv-x="342" 
 />
    <glyph glyph-name="franc" unicode="&#x20a3;" 
 />
    <glyph glyph-name="lira" unicode="&#x20a4;" 
 />
    <glyph glyph-name="peseta" unicode="&#x20a7;" horiz-adv-x="2028" 
 />
    <glyph glyph-name="Euro" unicode="&#x20ac;" horiz-adv-x="997" 
d="M742 561h-441q42 -165 167 -285t292 -153l-19 -131q-215 42 -373 198t-202 371h-140v132h125l-1 17q0 36 4 72h-128v132h154q68 232 262 380t440 148q39 0 79 -4l-20 -131q-30 3 -59 3q-192 0 -346 -110t-218 -286h424v-132h-455q-5 -37 -5 -55t1 -34h459v-132z" />
    <glyph glyph-name="afii61352" unicode="&#x2116;" horiz-adv-x="2271" 
 />
    <glyph glyph-name="trademark" unicode="&#x2122;" horiz-adv-x="1497" 
 />
    <glyph glyph-name="partialdiff" unicode="&#x2202;" 
 />
    <glyph glyph-name="Delta" unicode="&#x2206;" horiz-adv-x="1081" 
 />
    <glyph glyph-name="product" unicode="&#x220f;" horiz-adv-x="1515" 
 />
    <glyph glyph-name="summation" unicode="&#x2211;" horiz-adv-x="1206" 
 />
    <glyph glyph-name="minus" unicode="&#x2212;" 
 />
    <glyph glyph-name="radical" unicode="&#x221a;" 
 />
    <glyph glyph-name="infinity" unicode="&#x221e;" 
 />
    <glyph glyph-name="integral" unicode="&#x222b;" horiz-adv-x="665" 
 />
    <glyph glyph-name="approxequal" unicode="&#x2248;" 
 />
    <glyph glyph-name="lessequal" unicode="&#x2264;" 
 />
    <glyph glyph-name="greaterequal" unicode="&#x2265;" 
 />
    <glyph glyph-name="uniF001" unicode="&#xf001;" horiz-adv-x="1073" 
 />
    <glyph glyph-name="uniF001" unicode="&#xfb01;" horiz-adv-x="1073" 
 />
    <glyph glyph-name="uniF002" unicode="&#xf002;" horiz-adv-x="1081" 
 />
    <glyph glyph-name="uniF002" unicode="&#xfb02;" horiz-adv-x="1081" 
 />
    </font>
</defs>
</svg>
